<svg width="12" height="20" viewBox="0 0 12 20" fill="none" xmlns="http://www.w3.org/2000/svg">
<path d="M3.55001 10L10.9 17.35C11.15 17.6 11.2708 17.8917 11.2625 18.225C11.2542 18.5583 11.125 18.85 10.875 19.1C10.625 19.35 10.3333 19.475 10 19.475C9.66668 19.475 9.37501 19.35 9.12501 19.1L1.42501 11.425C1.22501 11.225 1.07501 11 0.975012 10.75C0.875012 10.5 0.825012 10.25 0.825012 10C0.825012 9.75 0.875012 9.5 0.975012 9.25C1.07501 9 1.22501 8.775 1.42501 8.575L9.12501 0.875003C9.37501 0.625003 9.67085 0.50417 10.0125 0.512503C10.3542 0.520837 10.65 0.650003 10.9 0.900003C11.15 1.15 11.275 1.44167 11.275 1.775C11.275 2.10834 11.15 2.4 10.9 2.65L3.55001 10Z" fill="white"/>
</svg>
